<?xml version="1.0" encoding="UTF-8" standalone="no"?><svg xmlns="http://www.w3.org/2000/svg" xmlns:xlink="http://www.w3.org/1999/xlink" contentScriptType="application/ecmascript" contentStyleType="text/css" height="199px" preserveAspectRatio="none" style="width:547px;height:199px;" version="1.1" viewBox="0 0 547 199" width="547px" zoomAndPan="magnify"><defs><filter height="300%" id="fjga5v4rld7je" width="300%" x="-1" y="-1"><feGaussianBlur result="blurOut" stdDeviation="2.0"/><feColorMatrix in="blurOut" result="blurOut2" type="matrix" values="0 0 0 0 0 0 0 0 0 0 0 0 0 0 0 0 0 0 .4 0"/><feOffset dx="4.0" dy="4.0" in="blurOut2" result="blurOut3"/><feBlend in="SourceGraphic" in2="blurOut3" mode="normal"/></filter></defs><g><!--MD5=[e3471f280e59d1431a9a122c0f31e779]
class c--><rect codeLine="10" fill="#F0F8FF" filter="url(#fjga5v4rld7je)" height="65.9102" id="c" rx="5" ry="5" style="stroke: #2F4F4F; stroke-width: 1.5;" width="88" x="173.5" y="7"/><ellipse cx="195.7" cy="23" fill="#A9DCDF" rx="11" ry="11" style="stroke: #2F4F4F; stroke-width: 1.0;"/><path d="M195.5633,18.3481 L194.4095,23.4199 L196.7254,23.4199 Z M194.0691,16.1069 L197.0657,16.1069 L200.4109,28.5 L197.9622,28.5 L197.1985,25.437 L193.9197,25.437 L193.1727,28.5 L190.7239,28.5 Z "/><text fill="#000000" font-family="TrebuchetMS" font-size="12" font-style="italic" lengthAdjust="spacingAndGlyphs" textLength="40" x="211.3" y="27.3008">Creator</text><line style="stroke: #2F4F4F; stroke-width: 1.5;" x1="174.5" x2="260.5" y1="39" y2="39"/><ellipse cx="184.5" cy="50" fill="#84BE84" rx="3" ry="3" style="stroke: #038048; stroke-width: 1.0;"/><text fill="#000000" font-family="sans-serif" font-size="11" font-style="italic" lengthAdjust="spacingAndGlyphs" textLength="41" x="193.5" y="53.6348">create()</text><ellipse cx="184.5" cy="62.9551" fill="#84BE84" rx="3" ry="3" style="stroke: #038048; stroke-width: 1.0;"/><text fill="#000000" font-family="sans-serif" font-size="11" lengthAdjust="spacingAndGlyphs" textLength="62" x="193.5" y="66.5898">Operation()</text><path d="M296.5,32.5 L296.5,36 L261.73,40 L296.5,44 L296.5,47.8105 A5,5 0 0 0 301.5,52.8105 L429.5,52.8105 A5,5 0 0 0 434.5,47.8105 L434.5,37.5 L424.5,27.5 L301.5,27.5 A5,5 0 0 0 296.5,32.5 " fill="#FBFB77" filter="url(#fjga5v4rld7je)" style="stroke: #A80036; stroke-width: 1.0;"/><path d="M424.5,27.5 L424.5,35 A2.5,2.5 0 0 0 427,37.5 L434.5,37.5 L424.5,27.5 " fill="#FBFB77" style="stroke: #A80036; stroke-width: 1.0;"/><text fill="#000000" font-family="sans-serif" font-size="13" lengthAdjust="spacingAndGlyphs" textLength="117" x="302.5" y="45.0684">product = create();</text><!--MD5=[217537f29afe639f347895754667a4fd]
class p--><rect codeLine="14" fill="#F0F8FF" filter="url(#fjga5v4rld7je)" height="32" id="p" rx="5" ry="5" style="stroke: #2F4F4F; stroke-width: 1.5;" width="75" x="53" y="24"/><ellipse cx="68" cy="40" fill="#A9DCDF" rx="11" ry="11" style="stroke: #2F4F4F; stroke-width: 1.0;"/><path d="M67.8633,35.3481 L66.7095,40.4199 L69.0254,40.4199 Z M66.3691,33.1069 L69.3657,33.1069 L72.7109,45.5 L70.2622,45.5 L69.4985,42.437 L66.2197,42.437 L65.4727,45.5 L63.0239,45.5 Z "/><text fill="#000000" font-family="TrebuchetMS" font-size="12" font-style="italic" lengthAdjust="spacingAndGlyphs" textLength="43" x="82" y="44.3008">Product</text><!--MD5=[9fa9675923b2c821721124a66decc968]
class ConcreteCreator--><rect codeLine="19" fill="#F0F8FF" filter="url(#fjga5v4rld7je)" height="52.9551" id="ConcreteCreator" rx="5" ry="5" style="stroke: #2F4F4F; stroke-width: 1.5;" width="123" x="167" y="133"/><ellipse cx="182" cy="149" fill="#ADD1B2" rx="11" ry="11" style="stroke: #2F4F4F; stroke-width: 1.0;"/><path d="M184.4731,155.1431 Q183.8921,155.4419 183.2529,155.5913 Q182.6138,155.7407 181.9082,155.7407 Q179.4014,155.7407 178.0815,154.0889 Q176.7617,152.437 176.7617,149.3159 Q176.7617,146.1865 178.0815,144.5347 Q179.4014,142.8828 181.9082,142.8828 Q182.6138,142.8828 183.2612,143.0322 Q183.9087,143.1816 184.4731,143.4805 L184.4731,146.2031 Q183.8423,145.6221 183.2488,145.3523 Q182.6553,145.0825 182.0244,145.0825 Q180.6797,145.0825 179.9949,146.1492 Q179.3101,147.2158 179.3101,149.3159 Q179.3101,151.4077 179.9949,152.4744 Q180.6797,153.541 182.0244,153.541 Q182.6553,153.541 183.2488,153.2712 Q183.8423,153.0015 184.4731,152.4204 Z "/><text fill="#000000" font-family="TrebuchetMS" font-size="12" lengthAdjust="spacingAndGlyphs" textLength="91" x="196" y="153.3008">ConcreteCreator</text><line style="stroke: #2F4F4F; stroke-width: 1.5;" x1="168" x2="289" y1="165" y2="165"/><ellipse cx="178" cy="176" fill="#84BE84" rx="3" ry="3" style="stroke: #038048; stroke-width: 1.0;"/><text fill="#000000" font-family="sans-serif" font-size="11" lengthAdjust="spacingAndGlyphs" textLength="41" x="187" y="179.6348">create()</text><path d="M325.5,152 L325.5,155.5 L290.13,159.5 L325.5,163.5 L325.5,167.3105 A5,5 0 0 0 330.5,172.3105 L528.5,172.3105 A5,5 0 0 0 533.5,167.3105 L533.5,157 L523.5,147 L330.5,147 A5,5 0 0 0 325.5,152 " fill="#FBFB77" filter="url(#fjga5v4rld7je)" style="stroke: #A80036; stroke-width: 1.0;"/><path d="M523.5,147 L523.5,154.5 A2.5,2.5 0 0 0 526,157 L533.5,157 L523.5,147 " fill="#FBFB77" style="stroke: #A80036; stroke-width: 1.0;"/><text fill="#000000" font-family="sans-serif" font-size="13" lengthAdjust="spacingAndGlyphs" textLength="187" x="331.5" y="164.5684">return new ConcreteProduct();</text><!--MD5=[990132e04f994323e3060f5453bb4352]
class ConcreteProduct--><rect fill="#F0F8FF" filter="url(#fjga5v4rld7je)" height="32" id="ConcreteProduct" rx="5" ry="5" style="stroke: #2F4F4F; stroke-width: 1.5;" width="125" x="7" y="143.5"/><ellipse cx="22" cy="159.5" fill="#ADD1B2" rx="11" ry="11" style="stroke: #2F4F4F; stroke-width: 1.0;"/><path d="M24.4731,165.6431 Q23.8921,165.9419 23.2529,166.0913 Q22.6138,166.2407 21.9082,166.2407 Q19.4014,166.2407 18.0815,164.5889 Q16.7617,162.937 16.7617,159.8159 Q16.7617,156.6865 18.0815,155.0347 Q19.4014,153.3828 21.9082,153.3828 Q22.6138,153.3828 23.2612,153.5322 Q23.9087,153.6816 24.4731,153.9805 L24.4731,156.7031 Q23.8423,156.1221 23.2488,155.8523 Q22.6553,155.5825 22.0244,155.5825 Q20.6797,155.5825 19.9949,156.6492 Q19.3101,157.7158 19.3101,159.8159 Q19.3101,161.9077 19.9949,162.9744 Q20.6797,164.041 22.0244,164.041 Q22.6553,164.041 23.2488,163.7712 Q23.8423,163.5015 24.4731,162.9204 Z "/><text fill="#000000" font-family="TrebuchetMS" font-size="12" lengthAdjust="spacingAndGlyphs" textLength="93" x="36" y="163.8008">ConcreteProduct</text><!--MD5=[fc9a9eb508dbc462be0b8feb8dcc2f4c]
reverse link p to ConcreteProduct--><path codeLine="24" d="M84.2,76.25 C80.22,98.55 75.26,126.24 72.25,143.14 " fill="none" id="p-backto-ConcreteProduct" style="stroke: #000000; stroke-width: 1.0;"/><polygon fill="none" points="77.35,74.82,87.75,56.36,91.13,77.28,77.35,74.82" style="stroke: #000000; stroke-width: 1.0;"/><!--MD5=[413b5ba74915710fe721898d1d577108]
reverse link c to ConcreteCreator--><path codeLine="25" d="M222.38,93.17 C223.67,106.89 225,121.1 226.09,132.75 " fill="none" id="c-backto-ConcreteCreator" style="stroke: #000000; stroke-width: 1.0;"/><polygon fill="none" points="215.4,93.67,220.51,73.11,229.34,92.37,215.4,93.67" style="stroke: #000000; stroke-width: 1.0;"/><!--MD5=[54cbc9d34fde44f65f73a9af180516bb]
reverse link p to c--><path codeLine="27" d="M133.48,40 C146.72,40 159.96,40 173.2,40 " fill="none" id="p-backto-c" style="stroke: #000000; stroke-width: 1.0;"/><polygon fill="#000000" points="128.2,40,137.2,44,133.2,40,137.2,36,128.2,40" style="stroke: #000000; stroke-width: 1.0;"/><text fill="#000000" font-family="sans-serif" font-size="13" lengthAdjust="spacingAndGlyphs" textLength="59" x="136.0598" y="28.2274">+product</text><!--MD5=[a725d70ebb0444d9edb449c8e9408be0]
reverse link ConcreteProduct to ConcreteCreator--><path codeLine="28" d="M137.37,159.5 C147.19,159.5 157.01,159.5 166.83,159.5 " fill="none" id="ConcreteProduct-backto-ConcreteCreator" style="stroke: #000000; stroke-width: 1.0; stroke-dasharray: 7.0,7.0;"/><polygon fill="#000000" points="132.23,159.5,141.23,163.5,137.23,159.5,141.23,155.5,132.23,159.5" style="stroke: #000000; stroke-width: 1.0;"/><!--MD5=[8b313594e3e38ce84e17d39c3c2fc83c]
@startuml

'- - - - - - - - - - - - - - - - - - - - - - - - - - - - - - - - - - -
' UML concepts illustrated
' JMB 2014
'- - - - - - - - - - - - - - - - - - - - - - - - - - - - - - - - - - -

!include config.cfg


abstract class c as "Creator" {
}
note right: product = create();

abstract class p as "Product"

c : {abstract} +create()
c : +Operation()

class ConcreteCreator {
	+create()
}
note right: return new ConcreteProduct();

p <|- - ConcreteProduct
c <|- - ConcreteCreator

p "+product" <- c
ConcreteProduct <. ConcreteCreator

@enduml

@startuml



hide empty members
hide empty methods


skinparam package {
	BackgroundColor empty
	BorderColor DarkSlateGray
	ArrowColor Black
	FontColor Black
	FontSize 12
	FontName TrebuchetMS
}
skinparam roundcorner 10

skinparam class {
	BackgroundColor AliceBlue
	BorderColor DarkSlateGray
	ArrowColor Black
	FontColor Black
	FontSize 12
	FontName TrebuchetMS
}
skinparam arrow {
    MessageAlign center
}


abstract class c as "Creator" {
}
note right: product = create();

abstract class p as "Product"

c : {abstract} +create()
c : +Operation()

class ConcreteCreator {
	+create()
}
note right: return new ConcreteProduct();

p <|- - ConcreteProduct
c <|- - ConcreteCreator

p "+product" <- c
ConcreteProduct <. ConcreteCreator

@enduml

PlantUML version 1.2020.18(Wed Sep 30 21:40:44 CEST 2020)
(GPL source distribution)
Java Runtime: OpenJDK Runtime Environment
JVM: OpenJDK 64-Bit Server VM
Default Encoding: UTF-8
Language: fr
Country: FR
--></g></svg>